# xmcd CD database file
#
# Track frame offsets:
#	150
#	27685
#	49837
#	81557
#	102982
#	125290
#	152607
#	173825
#	192175
#	211075
#	236950
#
# Disc length: 3455 seconds
#
# Revision: 3
# Processed by: cddbd v1.5.1PL0 Copyright (c) Steve Scherf et al.
# Submitted via: CDex 1.51
#
DISCID=960d7d0b
DTITLE=??? - ????????
DYEAR=2001
DGENRE=New Age
TTITLE0=????????
TTITLE1=????I????????????
TTITLE2=???????????????????
TTITLE3=?????
TTITLE4=Virgin Forest
TTITLE5=??
TTITLE6=?????????
TTITLE7=?????
TTITLE8=????II????????????
TTITLE9=Edge of the earth???????????
TTITLE10=????????????????
EXTD=YEAR: 2001
EXTT0=
EXTT1=
EXTT2=
EXTT3=
EXTT4=
EXTT5=
EXTT6=
EXTT7=
EXTT8=
EXTT9=
EXTT10=
PLAYORDER=
